# xmcd
#
# Track frame offsets:
#	150
#	22522
#	33500
#
# Disc length: 610 seconds
#
# Revision: 1
# Processed by: cddbd v1.5.2PL0 Copyright (c) Steve Scherf et al.
# Submitted via: audiograbber 1.83.01
#
DISCID=13026003
DTITLE=The Tea Party - In This Time
DYEAR=1994
DGENRE=Alternative Rock
TTITLE0=In This Time
TTITLE1=Haze On The Hills
TTITLE2=Winter Solstice
EXTD=
EXTT0=
EXTT1=
EXTT2=
PLAYORDER=
